<?xml version="1.0" encoding="UTF-8" standalone="no"?>
<!--
Copyright (C) 2009/2010/2011 Ulrich Apel.
This work is distributed under the conditions of the Creative Commons
Attribution-Share Alike 3.0 Licence. This means you are free:
* to Share - to copy, distribute and transmit the work
* to Remix - to adapt the work

Under the following conditions:
* Attribution. You must attribute the work by stating your use of KanjiVG in
  your own copyright header and linking to KanjiVG's website
  (http://kanjivg.tagaini.net)
* Share Alike. If you alter, transform, or build upon this work, you may
  distribute the resulting work only under the same or similar license to this
  one.

See http://creativecommons.org/licenses/by-sa/3.0/ for more details.
-->

<svg
   width="109"
   height="109"
   viewBox="0 0 109 109"
   version="1.1"
   id="svg45"
   sodipodi:docname="052d6.svg"
   xml:space="preserve"
   inkscape:version="1.2.2 (b0a8486541, 2022-12-01)"
   xmlns:inkscape="http://www.inkscape.org/namespaces/inkscape"
   xmlns:sodipodi="http://sodipodi.sourceforge.net/DTD/sodipodi-0.dtd"
   xmlns="http://www.w3.org/2000/svg"
   xmlns:svg="http://www.w3.org/2000/svg"
   xmlns:kvg="http://kanjivg.tagaini.net"><defs
     id="defs49" /><sodipodi:namedview
     id="namedview47"
     pagecolor="#505050"
     bordercolor="#ffffff"
     borderopacity="1"
     inkscape:showpageshadow="0"
     inkscape:pageopacity="0"
     inkscape:pagecheckerboard="1"
     inkscape:deskcolor="#505050"
     showgrid="false"
     inkscape:zoom="5.7995731"
     inkscape:cx="24.915627"
     inkscape:cy="64.659932"
     inkscape:window-width="1920"
     inkscape:window-height="1042"
     inkscape:window-x="0"
     inkscape:window-y="0"
     inkscape:window-maximized="1"
     inkscape:current-layer="svg45" /><g
     id="kvg:StrokePaths_05e3d"
     style="fill:none;stroke:#000000;stroke-width:3;stroke-linecap:round;stroke-linejoin:round"
     transform="translate(-37.341985,0.72381482)"><g
       id="kvg:05e3d"
       kvg:element="帽"><g
         id="kvg:05e3d-g1"
         kvg:element="巾"
         kvg:position="left"
         kvg:radical="general" /><g
         id="kvg:05e3d-g2"
         kvg:element="冒"
         kvg:position="right"
         kvg:phon="冒"><g
           id="kvg:05e3d-g3"
           kvg:element="日"
           kvg:position="top"><path
             id="kvg:05e3d-s4"
             kvg:type="㇑"
             d="m 51.05,16.53 c 0.84,0.84 1.17,1.88 1.33,2.85 0.86,5.13 1.6,11.4 2.22,18.38 0.18,2.07 0.36,4.05 0.54,5.84" /><path
             id="kvg:05e3d-s5"
             kvg:type="㇕a"
             d="m 53.17,17.82 c 9.6,-1.07 24.69,-2.5 34.47,-3.36 3.79,-0.33 5.62,0.47 5.12,4.44 -0.47,3.72 -1.34,9.85 -2.21,15.66 -0.36,2.39 -0.72,4.69 -1.06,6.69" /><path
             id="kvg:05e3d-s6"
             kvg:type="㇐a"
             d="m 55.24,29.28 c 4.64,-0.53 32.41,-2.76 35.17,-2.91" /><path
             id="kvg:05e3d-s7"
             kvg:type="㇐a"
             d="M 55.67,40.89 C 65.62,39.75 77.75,39 88.83,38.31" /></g><g
           id="kvg:05e3d-g4"
           kvg:element="目"
           kvg:position="bottom"><path
             id="kvg:05e3d-s8"
             kvg:type="㇑"
             d="m 55.75,50.65 c 1.11,1.11 1.33,2.23 1.33,4.07 0,0.98 0.08,21.87 -0.01,33.78 -0.04,4.49 -0.06,7.64 -0.06,7.82" /><path
             id="kvg:05e3d-s9"
             kvg:type="㇕a"
             d="m 57.93,51.69 c 2.49,-0.15 21.09,-2.02 25.95,-2.46 2.91,-0.27 4.41,0.99 4.41,4.05 0,3.98 0.18,19.02 0.06,32.48 -0.03,3.26 -0.05,6.42 -0.04,9.3" /><path
             id="kvg:05e3d-s10"
             kvg:type="㇐a"
             d="M 58.49,64.4 C 65.63,63.5 83,62.05 87.33,62.05" /><path
             id="kvg:05e3d-s11"
             kvg:type="㇐a"
             d="m 58.36,77.47 c 7.15,-0.56 21.96,-2.24 28.9,-2.24" /><path
             id="kvg:05e3d-s12"
             kvg:type="㇐a"
             d="m 58.08,92.06 c 5.91,-0.3 22.34,-1.73 29.02,-1.73" /></g></g></g></g><g
     id="kvg:StrokeNumbers_05e3d"
     style="font-size:8px;fill:#808080"
     transform="translate(-38.992488,0.39268922)"><text
       transform="translate(45.5,24.5)"
       id="text26">1</text><text
       id="text26-3"
       style="font-size:8px;fill:#808080"
       x="100.46283"
       y="38.989223">10</text><text
       id="text26-6"
       style="font-size:8px;fill:#808080"
       x="120.96879"
       y="19.968269">11</text><text
       transform="translate(54.5,14.5)"
       id="text28">2</text><text
       transform="translate(57.75,26.5)"
       id="text30">3</text><text
       transform="translate(58.5,37.5)"
       id="text32">4</text><text
       transform="translate(49.5,57.5)"
       id="text34">5</text><text
       transform="translate(58.5,49.5)"
       id="text36">6</text><text
       transform="translate(60.24,60.05)"
       id="text38">7</text><text
       transform="translate(60.5,73.48)"
       id="text40">8</text><text
       transform="translate(60.31,88.41)"
       id="text42">9</text></g><g
     id="kvg:052d8-g13"
     kvg:element="力"
     kvg:position="right"
     kvg:radical="general"
     transform="translate(0.80281793,-1.6043093)"
     style="fill:none;stroke:#000000;stroke-width:3;stroke-linecap:round;stroke-linejoin:round"><path
       id="kvg:052d8-s10"
       kvg:type="㇆"
       d="m 59.22,43.89 c 2.03,0.61 4.92,0.7 6.51,0.45 10.41,-1.62 21.59,-4.1 25.84,-4.84 3.55,-0.62 4.53,0.58 4.41,3.81 -0.44,11.87 -4.24,34 -8.79,46.75 -3.06,8.57 -6.56,5.19 -9.64,1.77" /><path
       id="kvg:052d8-s11"
       kvg:type="㇒"
       d="m 77.42,17.68 c 0.83,1.07 0.98,2.58 0.9,4.4 -0.95,20.8 -3.95,54.3 -19.46,73.33" /></g></svg>
