<?xml version="1.0" encoding="UTF-8" standalone="no"?>
<!--
Copyright (C) 2009/2010/2011 Ulrich Apel.
This work is distributed under the conditions of the Creative Commons
Attribution-Share Alike 3.0 Licence. This means you are free:
* to Share - to copy, distribute and transmit the work
* to Remix - to adapt the work

Under the following conditions:
* Attribution. You must attribute the work by stating your use of KanjiVG in
  your own copyright header and linking to KanjiVG's website
  (http://kanjivg.tagaini.net)
* Share Alike. If you alter, transform, or build upon this work, you may
  distribute the resulting work only under the same or similar license to this
  one.

See http://creativecommons.org/licenses/by-sa/3.0/ for more details.
-->

<svg
   width="109"
   height="109"
   viewBox="0 0 109 109"
   version="1.1"
   id="svg154"
   sodipodi:docname="0566f.svg"
   xml:space="preserve"
   inkscape:version="1.2.2 (b0a8486541, 2022-12-01)"
   xmlns:inkscape="http://www.inkscape.org/namespaces/inkscape"
   xmlns:sodipodi="http://sodipodi.sourceforge.net/DTD/sodipodi-0.dtd"
   xmlns="http://www.w3.org/2000/svg"
   xmlns:svg="http://www.w3.org/2000/svg"
   xmlns:kvg="http://kanjivg.tagaini.net"><defs
     id="defs158"><rect
       x="1.6519885"
       y="37.66942"
       width="61.715197"
       height="28.434371"
       id="rect385" /></defs><sodipodi:namedview
     id="namedview156"
     pagecolor="#ffffff"
     bordercolor="#000000"
     borderopacity="0.25"
     inkscape:showpageshadow="2"
     inkscape:pageopacity="0.0"
     inkscape:pagecheckerboard="0"
     inkscape:deskcolor="#d1d1d1"
     showgrid="false"
     inkscape:zoom="6.972477"
     inkscape:cx="58.013816"
     inkscape:cy="63.392106"
     inkscape:window-width="1920"
     inkscape:window-height="1008"
     inkscape:window-x="0"
     inkscape:window-y="0"
     inkscape:window-maximized="1"
     inkscape:current-layer="svg154" /><g
     id="kvg:StrokeNumbers_0611b"
     style="font-size:8px;fill:#808080"
     transform="translate(-107.6942,0.778964)"><text
       transform="translate(50.5,8.5)"
       id="text127">1</text><text
       transform="translate(26.5,29.5)"
       id="text129">2</text><text
       transform="translate(42.75,28.5)"
       id="text131">3</text><text
       transform="translate(67.5,19.63)"
       id="text133">4</text><text
       transform="translate(11.25,43.5)"
       id="text135">5</text><text
       transform="translate(20.5,36.13)"
       id="text137">6</text><text
       transform="translate(23.25,49.5)"
       id="text139">7</text><text
       transform="translate(33.49,49.5)"
       id="text141">8</text><text
       transform="translate(46.5,46.5)"
       id="text143">9</text><text
       transform="translate(62.5,44.5)"
       id="text145">10</text><text
       transform="translate(30.5,65.5)"
       id="text147">11</text><text
       transform="translate(45.75,64.63)"
       id="text149">12</text><text
       transform="translate(36.94,82.5)"
       id="text151">13</text></g><text
     xml:space="preserve"
     id="text383"
     style="font-family:'Noto Serif CJK JP';-inkscape-font-specification:'Noto Serif CJK JP';white-space:pre;shape-inside:url(#rect385);display:inline;fill:#000000;fill-opacity:0.561577" /><text
     xml:space="preserve"
     style="font-size:96px;font-family:'Noto Serif CJK JP';-inkscape-font-specification:'Noto Serif CJK JP';display:inline;fill:#000000;fill-opacity:0.561577"
     x="4.3979406"
     y="96.115562"
     id="text441"><tspan
       sodipodi:role="line"
       id="tspan439"
       x="4.3979406"
       y="96.115562"
       style="font-style:normal;font-variant:normal;font-weight:normal;font-stretch:normal;font-size:96px;font-family:'A-OTF 教科書ICA Pro';-inkscape-font-specification:'A-OTF 教科書ICA Pro'">噯</tspan></text><g
     id="kvg:0611b"
     kvg:element="愛"
     transform="translate(13.089837,1.3220601)"
     style="fill:none;stroke:#000000;stroke-width:3;stroke-linecap:round;stroke-linejoin:round"><g
       id="kvg:0611b-g1"
       kvg:element="⺤"
       kvg:variant="true"
       kvg:original="爪"
       kvg:position="top"
       kvg:radical="nelson"
       kvg:phon="旡"><path
         id="kvg:0611b-s1"
         kvg:type="㇒"
         d="m 66.513315,10.133541 c -0.510257,3.535579 -8.918077,4.951082 -12.320517,5.70093 -5.764858,1.098666 -10.162027,1.934072 -20.671227,3.995072"
         sodipodi:nodetypes="ccc" /><path
         id="kvg:0611b-s2"
         kvg:type="㇔"
         d="m 32.145739,24.333738 c 3.055042,1.60873 6.052239,3.823787 6.799127,6.290902"
         sodipodi:nodetypes="cc" /><path
         id="kvg:0611b-s3"
         kvg:type="㇔"
         d="m 47.53042,21.975531 c 2.451226,1.676991 6.291771,4.907497 6.646169,6.986752"
         sodipodi:nodetypes="cc" /><path
         id="kvg:0611b-s4"
         kvg:type="㇒"
         d="m 74.101153,19.607495 c 0.220575,0.94199 -0.752694,2.33636 -1.255033,3.194122 -1.685513,1.558161 -2.978456,2.594533 -8.884145,7.404195"
         sodipodi:nodetypes="ccc" /></g><g
       id="kvg:0611b-g2"
       kvg:position="bottom"><g
         id="kvg:0611b-g3"
         kvg:element="冖"><path
           id="kvg:0611b-s5"
           kvg:type="㇔"
           d="m 28.64574,36.423601 c -0.1,3.62 -2.292364,7.118125 -3.152364,9.338125"
           sodipodi:nodetypes="cc" /><path
           id="kvg:0611b-s6"
           kvg:type="㇖b"
           d="m 29.434444,35.976027 c 18.14,-1.93 28.73174,-2.161325 48.64174,-2.951325 13.73,-0.55 6.063324,6.61594 2.163324,8.95594"
           sodipodi:nodetypes="ccc" /></g><g
         id="kvg:0611b-g4"
         kvg:element="心"
         kvg:radical="tradit"><path
           id="kvg:0611b-s7"
           kvg:type="㇔"
           d="m 34.007093,47.047672 c 0.19,1.49 -3.343048,8.514457 -5.801191,10.805852"
           sodipodi:nodetypes="cc" /><path
           id="kvg:0611b-s9"
           kvg:type="㇔a"
           d="m 53.13,42.75 c 1.49,3 4.72,5.55 5.58,3.13" /><path
           id="kvg:0611b-s10"
           kvg:type="㇔"
           d="m 67.906413,40.519794 c 4.653004,2.216912 5.60998,1.977373 8.23998,6.017373"
           sodipodi:nodetypes="cc" /></g><g
         id="kvg:0611b-g5"
         kvg:element="夂"><path
           id="kvg:0611b-s11"
           kvg:type="㇒"
           d="m 41.78,60.53 c 0.11,1.11 -0.05,2.08 -0.47,3.12 -1.89,4.68 -8.45,13.22 -17.19,18.6" /><path
           id="kvg:0611b-s12"
           kvg:type="㇇"
           d="m 42.58,67.93 c 0.4,0.03 2.1,0.04 3.24,-0.08 5.8,-0.6 12.43,-2.1 18.93,-3.6 3.61,-0.83 5.25,1 3.25,4.25 -4.94,8.02 -25.58,27.16 -48.5,31.22" /><path
           id="kvg:0611b-s13"
           kvg:type="㇏"
           d="m 39.1,73.3 c 8.4,1.32 25.91,14.1 36.4,19.82 3.44,1.88 6.96,3.35 10.88,3.88" /></g></g></g><g
     id="kvg:056d1-g1"
     kvg:element="口"
     kvg:position="left"
     kvg:radical="general"
     transform="translate(-0.60620841,5.2871029)"
     style="fill:none;stroke:#000000;stroke-width:3;stroke-linecap:round;stroke-linejoin:round"><path
       id="kvg:056d1-s1"
       kvg:type="㇑"
       d="m 11,34.53 c 0.33,0.44 0.67,0.8 0.82,1.35 1.15,4.35 3.46,17.81 4.25,25.62" /><path
       id="kvg:056d1-s2"
       kvg:type="㇕b"
       d="m 13.07,36.62 c 8.37,-1.91 14.31,-3.06 18.19,-3.63 1.42,-0.21 2.27,1.24 2.07,2.46 -0.84,5.08 -2.29,12.44 -3.54,19.46" /><path
       id="kvg:056d1-s3"
       kvg:type="㇐b"
       d="M 15.76,57.93 C 20.32,57.28 25.83,56.54 32.1,55.54" /></g><g
     id="g1628"
     transform="translate(115.6181,-7.5467879)"><g
       id="kvg:StrokePaths_0611b"
       style="fill:none;stroke:#000000;stroke-width:3;stroke-linecap:round;stroke-linejoin:round"><g
         id="kvg:0611b-3"
         kvg:element="愛"><g
           id="kvg:0611b-g1-6"
           kvg:element="⺤"
           kvg:variant="true"
           kvg:original="爪"
           kvg:position="top"
           kvg:radical="nelson"
           kvg:phon="旡"><path
             id="kvg:0611b-s1-7"
             kvg:type="㇒"
             d="m 59.38,8.75 c -0.21,0.82 -0.79,1.64 -1.47,2.17 -3.13,2.42 -12.8,6.29 -23.36,8.97" /><path
             id="kvg:0611b-s2-5"
             kvg:type="㇔"
             d="m 32.12,23.38 c 3.07,1.58 7.54,5.46 8.31,7.92" /><path
             id="kvg:0611b-s3-3"
             kvg:type="㇔"
             d="m 48.17,22.31 c 2.68,1.28 6.93,5.28 7.6,7.28" /><path
             id="kvg:0611b-s4-5"
             kvg:type="㇒"
             d="m 75.86,18.37 c 0.12,0.96 -0.09,1.34 -0.68,2.14 -2.05,2.78 -6.53,6.83 -12.91,10.99" /></g><g
           id="kvg:0611b-g2-6"
           kvg:position="bottom"><g
             id="kvg:0611b-g3-2"
             kvg:element="冖"><path
               id="kvg:0611b-s5-9"
               kvg:type="㇔"
               d="m 17.99,38.24 c -0.1,3.62 -1.86,11.86 -2.72,14.08" /><path
               id="kvg:0611b-s6-1"
               kvg:type="㇖b"
               d="m 18.36,39.68 c 18.14,-1.93 48.77,-6.31 68.68,-7.1 13.73,-0.55 3.22,6.92 -0.68,9.26" /></g><g
             id="kvg:0611b-g4-2"
             kvg:element="心"
             kvg:radical="tradit"><path
               id="kvg:0611b-s7-7"
               kvg:type="㇔"
               d="m 29.53,46.89 c 0.19,1.49 -1.93,8.08 -3.47,10.57" /><path
               id="kvg:0611b-s8-0"
               kvg:type="㇃"
               d="m 39.78,45.13 c 6.35,9.25 13.6,13 34.98,12.1 5.32,-0.22 5.31,-2.72 2.4,-4.63" /><path
               id="kvg:0611b-s9-9"
               kvg:type="㇔a"
               d="m 53.13,42.75 c 1.49,3 4.72,5.55 5.58,3.13" /><path
               id="kvg:0611b-s10-3"
               kvg:type="㇔"
               d="m 72.97,40.61 c 3.28,2.14 5.4,3.51 8.03,7.55" /></g><g
             id="kvg:0611b-g5-6"
             kvg:element="夂"><path
               id="kvg:0611b-s11-0"
               kvg:type="㇒"
               d="m 41.78,60.53 c 0.11,1.11 -0.05,2.08 -0.47,3.12 -1.89,4.68 -8.45,13.22 -17.19,18.6" /><path
               id="kvg:0611b-s12-6"
               kvg:type="㇇"
               d="m 42.58,67.93 c 0.4,0.03 2.1,0.04 3.24,-0.08 5.8,-0.6 12.43,-2.1 18.93,-3.6 3.61,-0.83 5.25,1 3.25,4.25 -4.94,8.02 -25.58,27.16 -48.5,31.22" /><path
               id="kvg:0611b-s13-2"
               kvg:type="㇏"
               d="m 39.1,73.3 c 8.4,1.32 25.91,14.1 36.4,19.82 3.44,1.88 6.96,3.35 10.88,3.88" /></g></g></g></g><g
       id="kvg:StrokeNumbers_0611b-6"
       style="font-size:8px;fill:#808080"><text
         transform="translate(50.5,8.5)"
         id="text1561">1</text><text
         transform="translate(26.5,29.5)"
         id="text1563">2</text><text
         transform="translate(42.75,28.5)"
         id="text1565">3</text><text
         transform="translate(67.5,19.63)"
         id="text1567">4</text><text
         transform="translate(11.25,43.5)"
         id="text1569">5</text><text
         transform="translate(20.5,36.13)"
         id="text1571">6</text><text
         transform="translate(23.25,49.5)"
         id="text1573">7</text><text
         transform="translate(33.49,49.5)"
         id="text1575">8</text><text
         transform="translate(46.5,46.5)"
         id="text1577">9</text><text
         transform="translate(62.5,44.5)"
         id="text1579">10</text><text
         transform="translate(30.5,65.5)"
         id="text1581">11</text><text
         transform="translate(45.75,64.63)"
         id="text1583">12</text><text
         transform="translate(36.94,82.5)"
         id="text1585">13</text></g></g><path
     id="kvg:0611b-s8-0-1"
     kvg:type="㇃"
     d="m 53.236764,47.467885 c 6.35,9.25 10.549047,11.32586 31.929047,10.42586 5.32,-0.22 5.31,-2.72 2.4,-4.63"
     style="fill:none;stroke:#000000;stroke-width:3;stroke-linecap:round;stroke-linejoin:round"
     sodipodi:nodetypes="ccc" /></svg>
