<?xml version="1.0" encoding="UTF-8" standalone="no"?>
<!--
Copyright (C) 2009/2010/2011 Ulrich Apel.
This work is distributed under the conditions of the Creative Commons
Attribution-Share Alike 3.0 Licence. This means you are free:
* to Share - to copy, distribute and transmit the work
* to Remix - to adapt the work

Under the following conditions:
* Attribution. You must attribute the work by stating your use of KanjiVG in
  your own copyright header and linking to KanjiVG's website
  (http://kanjivg.tagaini.net)
* Share Alike. If you alter, transform, or build upon this work, you may
  distribute the resulting work only under the same or similar license to this
  one.

See http://creativecommons.org/licenses/by-sa/3.0/ for more details.
-->

<svg
   width="109"
   height="109"
   viewBox="0 0 109 109"
   version="1.1"
   id="svg67"
   sodipodi:docname="06a94.svg"
   xml:space="preserve"
   inkscape:version="1.2.2 (b0a8486541, 2022-12-01)"
   xmlns:inkscape="http://www.inkscape.org/namespaces/inkscape"
   xmlns:sodipodi="http://sodipodi.sourceforge.net/DTD/sodipodi-0.dtd"
   xmlns="http://www.w3.org/2000/svg"
   xmlns:svg="http://www.w3.org/2000/svg"
   xmlns:kvg="http://kanjivg.tagaini.net"><defs
     id="defs71" /><sodipodi:namedview
     id="namedview69"
     pagecolor="#505050"
     bordercolor="#ffffff"
     borderopacity="1"
     inkscape:showpageshadow="0"
     inkscape:pageopacity="0"
     inkscape:pagecheckerboard="1"
     inkscape:deskcolor="#505050"
     showgrid="false"
     inkscape:zoom="5.650367"
     inkscape:cx="56.27953"
     inkscape:cy="60.527042"
     inkscape:window-width="1918"
     inkscape:window-height="1059"
     inkscape:window-x="0"
     inkscape:window-y="19"
     inkscape:window-maximized="1"
     inkscape:current-layer="svg67" /><g
     id="g987"
     inkscape:groupmode="layer"><g
       id="kvg:06790-g1"
       kvg:element="木"
       kvg:position="left"
       kvg:radical="general"
       transform="translate(-6.1888809,1.0452727)"
       style="fill:none;stroke:#000000;stroke-width:3;stroke-linecap:round;stroke-linejoin:round"><path
         id="kvg:06790-s1"
         kvg:type="㇐"
         d="m 13.28,38.47 c 1.85,0.53 5.19,0.34 6.63,0.14 6.11,-0.85 17.54,-2.67 23.49,-3.69 1.25,-0.22 3.23,-0.54 4.37,-0.29" /><path
         id="kvg:06790-s2"
         kvg:type="㇑"
         d="m 32.86,13.75 c 1.13,1.13 1.54,2.5 1.54,4.67 0,4.25 0.03,45.99 0.03,69.7 0,3.27 0,6.19 0,8.62" /><path
         id="kvg:06790-s3"
         kvg:type="㇒"
         d="m 33.19,37.03 c 0,1.97 -0.43,3.47 -1.1,5.17 -4.46,11.29 -8.96,19.54 -18.98,33.13" /><path
         id="kvg:06790-s4"
         kvg:type="㇔/㇏"
         d="m 37.38,44.75 c 2.33,1.7 6.16,7.21 8.12,10.5" /></g></g><g
     id="g1094"><g
       id="kvg:08960-g2"
       kvg:element="當"
       kvg:position="right"
       style="fill:none;stroke:#000000;stroke-width:3;stroke-linecap:round;stroke-linejoin:round"><g
         id="kvg:08960-g3"
         kvg:element="尚"
         kvg:variant="true"
         kvg:position="top"><g
           id="kvg:08960-g4"
           kvg:element="⺌"
           kvg:variant="true"
           kvg:original="小"
           kvg:position="top"><path
             id="kvg:08960-s6"
             kvg:type="㇑"
             d="m 66.99,11.37 c 0.07,0.26 0.97,1.35 1.04,2.99 0.33,7.9 0.2,15.07 0.2,17.76" /><path
             id="kvg:08960-s7"
             kvg:type="㇔"
             d="m 47.59,17.08 c 3.15,1.74 8.15,7.17 8.94,9.88" /><path
             id="kvg:08960-s8"
             kvg:type="㇒"
             d="m 85.55,14.25 c 0.02,0.32 0.04,0.83 -0.03,1.3 -0.4,2.74 -2.7,8.74 -5.85,12.42" /></g><g
           id="kvg:08960-g5"
           kvg:position="bottom"><g
             id="kvg:08960-g6"
             kvg:element="冂"
             kvg:variant="true"><path
               id="kvg:08960-s9"
               kvg:type="㇔"
               d="M 47.83,30.92 C 47.69,34.54 45.21,43.03 44,45.19" /><path
               id="kvg:08960-s10"
               kvg:type="㇖"
               d="M 48.09,34.31 C 59.5,33 78.25,30.75 90.73,30.05 c 7.54,-0.42 4.91,3.81 -0.43,7.88" /></g><g
             id="kvg:08960-g7"
             kvg:element="口"><path
               id="kvg:08960-s11"
               kvg:type="㇑"
               d="m 53.62,44.29 c 0.23,0.31 0.5,0.56 0.58,0.96 0.67,3.56 2.52,11.03 3.19,16.25" /><path
               id="kvg:08960-s12"
               kvg:type="㇕b"
               d="m 55.08,45.88 c 4.33,-0.75 23.49,-3.22 27.55,-3.51 1.62,-0.12 2.62,1.63 2.25,3.1 -0.88,3.5 -1.78,6.07 -2.96,10.88" /><path
               id="kvg:08960-s13"
               kvg:type="㇐b"
               d="M 57.88,59.19 C 64.61,58.75 78.5,57.25 83.87,57.07" /></g></g></g><g
         id="kvg:08960-g8"
         kvg:element="田"
         kvg:position="bottom"><path
           id="kvg:08960-s14"
           kvg:type="㇑"
           d="m 49.15,69.06 c 0.28,0.5 0.79,1.83 0.94,2.43 1.25,5.01 2.76,16.52 3.49,25.75" /><path
           id="kvg:08960-s15"
           kvg:type="㇕a"
           d="m 50.2,70.5 c 11.04,-1.04 30.98,-3.03 38.39,-3.52 2.72,-0.18 3.72,2.06 3.57,3.4 -0.54,4.92 -3.19,17.15 -4.27,25" /><path
           id="kvg:08960-s16"
           kvg:type="㇑a"
           d="m 69.6,70.36 c 0.63,0.47 0.74,1.06 0.73,1.94 -0.04,5.81 0.17,19.55 0.17,21.66" /><path
           id="kvg:08960-s17"
           kvg:type="㇐a"
           d="m 52.36,82.57 c 4.89,-0.32 34.68,-2.49 37.35,-2.49" /><path
           id="kvg:08960-s18"
           kvg:type="㇐a"
           d="m 53.71,95.05 c 8.1,-0.66 24.79,-1.9 34.65,-2.04" /></g></g><g
       id="g743"><text
         id="text30"
         style="font-size:8px;fill:#808080"
         x="1.0981594"
         y="40.188293">1</text><text
         id="text32"
         style="font-size:8px;fill:#808080"
         x="21.631865"
         y="29.919147">2</text><text
         id="text34"
         style="font-size:8px;fill:#808080"
         x="19.02722"
         y="47.117939">3</text><text
         id="text36"
         style="font-size:8px;fill:#808080"
         x="32.519024"
         y="46.323135">4</text><text
         id="text40"
         style="font-size:8px;fill:#808080"
         x="61.5"
         y="8.5">5</text><text
         id="text42"
         style="font-size:8px;fill:#808080"
         x="41.5"
         y="16.5">6</text><text
         id="text44"
         style="font-size:8px;fill:#808080"
         x="80.5"
         y="10.5">7</text><text
         id="text46"
         style="font-size:8px;fill:#808080"
         x="41.25"
         y="31.5">8</text><text
         id="text48"
         style="font-size:8px;fill:#808080"
         x="49.25"
         y="31.450001">9</text><text
         id="text50"
         style="font-size:8px;fill:#808080"
         x="46.25"
         y="54.380001">10</text><text
         id="text52"
         style="font-size:8px;fill:#808080"
         x="56.5"
         y="42.5">11</text><text
         id="text54"
         style="font-size:8px;fill:#808080"
         x="60.25"
         y="55.5">12</text><text
         id="text56"
         style="font-size:8px;fill:#808080"
         x="42.25"
         y="80.150002">13</text><text
         id="text58"
         style="font-size:8px;fill:#808080"
         x="54.25"
         y="67.080002">14</text><text
         id="text60"
         style="font-size:8px;fill:#808080"
         x="73.25"
         y="75.5">15</text><text
         id="text62"
         style="font-size:8px;fill:#808080"
         x="56.5"
         y="79.5">16</text><text
         id="text62-3"
         style="font-size:8px;fill:#808080"
         x="56.420151"
         y="91.643494">17</text></g></g></svg>
