<?xml version="1.0" encoding="UTF-8" standalone="no"?>
<!--
Copyright (C) 2009/2010/2011 Ulrich Apel.
This work is distributed under the conditions of the Creative Commons
Attribution-Share Alike 3.0 Licence. This means you are free:
* to Share - to copy, distribute and transmit the work
* to Remix - to adapt the work

Under the following conditions:
* Attribution. You must attribute the work by stating your use of KanjiVG in
  your own copyright header and linking to KanjiVG's website
  (http://kanjivg.tagaini.net)
* Share Alike. If you alter, transform, or build upon this work, you may
  distribute the resulting work only under the same or similar license to this
  one.

See http://creativecommons.org/licenses/by-sa/3.0/ for more details.
-->

<svg
   width="109"
   height="109"
   viewBox="0 0 109 109"
   version="1.1"
   id="svg34"
   sodipodi:docname="07447.svg"
   xml:space="preserve"
   inkscape:version="1.2.2 (b0a8486541, 2022-12-01)"
   xmlns:inkscape="http://www.inkscape.org/namespaces/inkscape"
   xmlns:sodipodi="http://sodipodi.sourceforge.net/DTD/sodipodi-0.dtd"
   xmlns="http://www.w3.org/2000/svg"
   xmlns:svg="http://www.w3.org/2000/svg"
   xmlns:kvg="http://kanjivg.tagaini.net"><defs
     id="defs38" /><sodipodi:namedview
     id="namedview36"
     pagecolor="#505050"
     bordercolor="#ffffff"
     borderopacity="1"
     inkscape:showpageshadow="0"
     inkscape:pageopacity="0"
     inkscape:pagecheckerboard="1"
     inkscape:deskcolor="#505050"
     showgrid="false"
     inkscape:zoom="5.6568543"
     inkscape:cx="79.726289"
     inkscape:cy="63.816387"
     inkscape:window-width="1918"
     inkscape:window-height="1059"
     inkscape:window-x="0"
     inkscape:window-y="19"
     inkscape:window-maximized="1"
     inkscape:current-layer="svg34" /><g
     id="kvg:06bd2-g1"
     kvg:element="龶"
     kvg:position="top"
     transform="translate(16.360827,-5.467695)"
     style="fill:none;stroke:#000000;stroke-width:3;stroke-linecap:round;stroke-linejoin:round"><g
       id="kvg:06bd2-g2"
       kvg:element="三"
       kvg:part="1"
       kvg:position="top"><g
         id="kvg:06bd2-g3"
         kvg:element="一"
         kvg:position="top"><path
           id="kvg:06bd2-s1"
           kvg:type="㇐"
           d="m 36.05,21.97 c 2.07,0.53 3.7,0.66 6.1,0.36 7.01,-0.89 20.1,-2.45 28.23,-2.9 2.03,-0.11 4.02,-0.18 6.04,0.1" /></g></g><path
       id="kvg:06bd2-s2"
       kvg:type="㇑a"
       d="m 53.67,10.22 c 0.99,0.99 1.71,2.28 1.71,3.9 0,6.68 -0.19,22.63 -0.13,30.13" /><g
       id="kvg:06bd2-g4"
       kvg:element="三"
       kvg:part="2"
       kvg:position="bottom"><path
         id="kvg:06bd2-s3"
         kvg:type="㇐"
         d="m 34.09,33.55 c 1.87,0.7 4.11,0.52 6.04,0.32 7.5,-0.75 21.07,-2.38 28.13,-2.96 2.14,-0.18 4.24,-0.28 6.38,-0.03" /><path
         id="kvg:06bd2-s4"
         kvg:type="㇐"
         d="m 19.13,47.77 c 3.42,0.78 6.92,0.65 10.38,0.32 14,-1.34 36.87,-3.84 50.5,-4.72 3.1,-0.2 7,0.01 9.62,0.42" /></g></g><text
     id="text25"
     style="font-size:8px;fill:#808080"
     x="46.896168"
     y="16.929838">5</text><text
     id="text27"
     style="font-size:8px;fill:#808080"
     x="63.016308"
     y="6.804461">6</text><text
     id="text29"
     style="font-size:8px;fill:#808080"
     x="43.992054"
     y="29.680782">7</text><text
     id="text31"
     style="font-size:8px;fill:#808080"
     x="33.217686"
     y="41.010151">8</text><text
     id="text31-3"
     style="font-size:8px;fill:#808080"
     x="51.364529"
     y="57.008984"><tspan
       sodipodi:role="line"
       id="tspan576"
       x="51.364529"
       y="57.008984">9</tspan></text><text
     id="text31-3-6"
     style="font-size:8px;fill:#808080"
     x="59.84882"
     y="50.102215"><tspan
       sodipodi:role="line"
       id="tspan576-7"
       x="59.84882"
       y="50.102215">10</tspan></text><text
     id="text31-3-6-5"
     style="font-size:8px;fill:#808080"
     x="59.235287"
     y="60.123398"><tspan
       sodipodi:role="line"
       id="tspan576-7-3"
       x="59.235287"
       y="60.123398">11</tspan></text><text
     id="text31-3-6-5-5"
     style="font-size:8px;fill:#808080"
     x="55.914635"
     y="78.23658"
     inkscape:transform-center-x="-35.086027"
     inkscape:transform-center-y="-3.753479"><tspan
       sodipodi:role="line"
       id="tspan576-7-3-6"
       x="55.914635"
       y="78.23658">12</tspan></text><text
     id="text31-3-6-5-5-2"
     style="font-size:8px;fill:#808080"
     x="34.009872"
     y="69.359787"
     inkscape:transform-center-x="-35.086027"
     inkscape:transform-center-y="-3.753479"><tspan
       sodipodi:role="line"
       id="tspan576-7-3-6-9"
       x="34.009872"
       y="69.359787">13</tspan></text><g
     id="kvg:073cd-g1"
     kvg:element="王"
     kvg:original="玉"
     kvg:partial="true"
     kvg:position="left"
     kvg:radical="general"
     transform="translate(-3.0648412,3.8910086)"
     style="fill:none;stroke:#000000;stroke-width:3;stroke-linecap:round;stroke-linejoin:round"><path
       id="kvg:073cd-s1"
       kvg:type="㇐"
       d="m 11,28.42 c 1.5,0.45 3.77,0.39 5.13,0.28 4.36,-0.34 14.28,-1.67 20.25,-2.24 1.22,-0.12 2.99,-0.34 4.12,-0.04" /><path
       id="kvg:073cd-s2"
       kvg:type="㇑a"
       d="m 25.32,30.44 c 1,1 1.23,2.06 1.23,3.48 0,5.95 -0.05,36.21 -0.05,41.45" /><path
       id="kvg:073cd-s3"
       kvg:type="㇐"
       d="m 12.25,52.42 c 1.38,0.58 3.2,0.53 4.26,0.37 4.49,-0.67 13.74,-2.62 18.23,-3.19 0.69,-0.09 1.75,-0.35 3,-0.06" /><path
       id="kvg:073cd-s4"
       kvg:type="㇀/㇐"
       d="m 12.25,81.02 c 1.12,1.1 1.86,1.21 3.5,0.4 8,-3.92 12.62,-6.17 21,-10.25" /></g><text
     id="text285"
     style="font-size:8px;fill:#808080"
     x="0.31510809"
     y="32.909584">1</text><text
     id="text287"
     style="font-size:8px;fill:#808080"
     x="14.315108"
     y="42.90958">2</text><text
     id="text289"
     style="font-size:8px;fill:#808080"
     x="1.0651082"
     y="58.90958">3</text><text
     id="text291"
     style="font-size:8px;fill:#808080"
     x="2.3973334"
     y="86.831345">4</text><text
     xml:space="preserve"
     style="font-size:48px;fill:#000000"
     x="31.053537"
     y="-9.7431154"
     id="text483"><tspan
       sodipodi:role="line"
       id="tspan481"
       x="31.053537"
       y="-9.7431154">瑇</tspan></text><text
     xml:space="preserve"
     style="font-size:48px;fill:#000000"
     x="79.490196"
     y="46.696239"
     id="text609"><tspan
       sodipodi:role="line"
       id="tspan607"></tspan></text><g
     id="kvg:06666-g5"
     kvg:element="毋"
     kvg:original="母"
     kvg:partial="true"
     kvg:position="bottom"
     transform="translate(2.0903868,10.100777)"
     style="fill:none;stroke:#000000;stroke-width:3;stroke-linecap:round;stroke-linejoin:round"><path
       id="kvg:06666-s7"
       kvg:type="㇛"
       d="m 56.7,39.62 c 0.68,1.51 0.67,2.38 0.07,4.31 -3.27,10.45 -6.77,19.82 -9.91,27.35 -1.26,3.01 -0.17,3.75 2.39,4.01 10.4,1.06 21.86,3.2 32.41,7.65 3.4,1.44 6.7,3.11 9.85,5.07" /><path
       id="kvg:06666-s8"
       kvg:type="㇆a"
       d="m 57.5,41.91 c 1.5,0.59 2.9,0.46 3.78,0.36 8,-0.88 12.1,-1.77 19.97,-2.71 2.53,-0.3 5.04,0.31 4.76,3.48 -1.26,14.3 -8.04,43.25 -11.56,50.59 -2.7,5.63 -5.62,-0.59 -6.62,-1.62" /><path
       id="kvg:06666-s9"
       kvg:type="㇔"
       d="m 66.077858,47.195946 c 2.269983,1.293002 4.809791,4.256334 5.300416,6.038107" /><path
       id="kvg:06666-s10"
       kvg:type="㇔"
       d="m 63.92,65.16 c 2.269983,1.293002 4.809791,4.256334 5.300416,6.038107" /><path
       id="kvg:06666-s11"
       kvg:type="㇐"
       d="m 40.38,60.67 c 3.2,0.55 6.39,0.29 9.65,-0.01 11.23,-1.04 24.46,-2.19 38.98,-2.85 3.33,-0.15 6.61,-0.04 9.88,0.48" /></g></svg>
