<?xml version="1.0" encoding="UTF-8" standalone="no"?>
<!--
Copyright (C) 2009/2010/2011 Ulrich Apel.
This work is distributed under the conditions of the Creative Commons
Attribution-Share Alike 3.0 Licence. This means you are free:
* to Share - to copy, distribute and transmit the work
* to Remix - to adapt the work

Under the following conditions:
* Attribution. You must attribute the work by stating your use of KanjiVG in
  your own copyright header and linking to KanjiVG's website
  (http://kanjivg.tagaini.net)
* Share Alike. If you alter, transform, or build upon this work, you may
  distribute the resulting work only under the same or similar license to this
  one.

See http://creativecommons.org/licenses/by-sa/3.0/ for more details.
-->

<svg
   width="109"
   height="109"
   viewBox="0 0 109 109"
   version="1.1"
   id="svg29"
   sodipodi:docname="07afd.svg"
   inkscape:version="1.2.2 (b0a8486541, 2022-12-01)"
   xmlns:inkscape="http://www.inkscape.org/namespaces/inkscape"
   xmlns:sodipodi="http://sodipodi.sourceforge.net/DTD/sodipodi-0.dtd"
   xmlns="http://www.w3.org/2000/svg"
   xmlns:svg="http://www.w3.org/2000/svg"
   xmlns:kvg="http://kanjivg.tagaini.net">
  <defs
     id="defs33" />
  <sodipodi:namedview
     id="namedview31"
     pagecolor="#505050"
     bordercolor="#ffffff"
     borderopacity="1"
     inkscape:showpageshadow="0"
     inkscape:pageopacity="0"
     inkscape:pagecheckerboard="1"
     inkscape:deskcolor="#505050"
     showgrid="false"
     inkscape:zoom="3.9152382"
     inkscape:cx="42.398442"
     inkscape:cy="76.368278"
     inkscape:window-width="1054"
     inkscape:window-height="1059"
     inkscape:window-x="0"
     inkscape:window-y="19"
     inkscape:window-maximized="1"
     inkscape:current-layer="svg29" />
  <g
     id="g724"
     transform="translate(2)">
    <g
       id="g694">
      <g
         id="kvg:0828b-g2"
         kvg:element="于"
         kvg:position="bottom"
         kvg:phon="于"
         style="fill:none;stroke:#000000;stroke-width:3;stroke-linecap:round;stroke-linejoin:round"
         transform="translate(-0.59477083,7.5609124)">
        <g
           id="kvg:0828b-g3"
           kvg:element="二">
          <g
             id="kvg:0828b-g4"
             kvg:position="top">
            <path
               id="kvg:0828b-s4"
               kvg:type="㇐"
               d="m 29.51,41.53 c 2.37,0.47 4.6,0.29 6.74,0.05 7.53,-0.83 22.83,-2.52 32,-3.31 2.47,-0.21 5.2,-0.3 7.62,0.3" />
          </g>
          <g
             id="kvg:0828b-g5"
             kvg:position="bottom">
            <path
               id="kvg:0828b-s5"
               kvg:type="㇐"
               d="m 15.75,59.49 c 2.93,1.13 6.94,0.7 10,0.41 13.31,-1.23 41.85,-4.12 57.62,-4.54 3.13,-0.08 6.3,-0.21 9.38,0.5" />
          </g>
        </g>
        <g
           id="kvg:0828b-g6"
           kvg:element="亅">
          <path
             id="kvg:0828b-s6"
             kvg:type="㇚"
             d="m 53.58,42.83 c 1.23,1.23 1.73,3.04 1.73,5.13 0,14.24 0.05,37.76 0.05,42.61 0,10.26 -7.23,0.68 -8.55,-0.73" />
        </g>
      </g>
      <g
         id="kvg:07b1b-g1"
         kvg:element="竹"
         kvg:variant="true"
         kvg:position="top"
         kvg:radical="general"
         style="fill:none;stroke:#000000;stroke-width:3;stroke-linecap:round;stroke-linejoin:round"
         transform="translate(0.59578917,-0.04763383)">
        <g
           id="kvg:07b1b-g2"
           kvg:position="left">
          <path
             id="kvg:07b1b-s1"
             kvg:type="㇒"
             d="m 29.5,14.5 c 0.25,1 0.18,1.85 -0.08,2.71 -1.92,6.41 -5.92,15.41 -13.67,24.04" />
          <path
             id="kvg:07b1b-s2"
             kvg:type="㇐b"
             d="m 27.98,29.04 c 3.02,0 12.52,-1.79 18.14,-2.81 1.3,-0.24 2.91,-0.12 3.63,0.02" />
          <path
             id="kvg:07b1b-s3"
             kvg:type="㇔/㇑"
             d="m 31.5,31.62 c 2.33,2.23 6.39,7.28 6.81,9.34" />
        </g>
        <g
           id="kvg:07b1b-g3"
           kvg:position="right">
          <path
             id="kvg:07b1b-s4"
             kvg:type="㇒"
             d="m 67.5,13 c 0.11,0.94 -0.05,1.84 -0.46,2.69 -1.5,4.02 -5.82,10.86 -10.54,15.81" />
          <path
             id="kvg:07b1b-s5"
             kvg:type="㇐b"
             d="m 65.48,25.66 c 6.39,-0.03 15.89,-1.28 22.64,-2.4 1.19,-0.2 3,-0.26 4,0.08" />
          <path
             id="kvg:07b1b-s6"
             kvg:type="㇒/㇚"
             d="m 77.12,28.12 c 0.12,1 -0.12,2 -0.54,2.78 -1.07,1.99 -3.46,4.85 -6.46,8.1" />
        </g>
      </g>
    </g>
    <g
       id="g675"
       transform="translate(-0.79095928,0.28344582)">
      <text
         id="text234"
         style="font-size:8px;fill:#808080"
         x="24.408424"
         y="10.161027">1</text>
      <text
         id="text236"
         style="font-size:8px;fill:#808080"
         x="36.408424"
         y="23.661026">2</text>
      <text
         id="text238"
         style="font-size:8px;fill:#808080"
         x="27.408424"
         y="40.16103">3</text>
      <text
         id="text240"
         style="font-size:8px;fill:#808080"
         x="61.908424"
         y="8.661027">4</text>
      <text
         id="text242"
         style="font-size:8px;fill:#808080"
         x="75.408424"
         y="22.161026">5</text>
      <text
         id="text244"
         style="font-size:8px;fill:#808080"
         x="67.908424"
         y="35.691029">6</text>
      <text
         id="text246"
         style="font-size:8px;fill:#808080"
         x="20.413399"
         y="51.827446">7</text>
      <text
         id="text248"
         style="font-size:8px;fill:#808080"
         x="5.5095301"
         y="69.247345">8</text>
      <text
         id="text250"
         style="font-size:8px;fill:#808080"
         x="46.152851"
         y="59.26619">9</text>
    </g>
  </g>
</svg>
