<?xml version="1.0" encoding="UTF-8" standalone="no"?>
<!--
Copyright (C) 2009/2010/2011 Ulrich Apel.
This work is distributed under the conditions of the Creative Commons
Attribution-Share Alike 3.0 Licence. This means you are free:
* to Share - to copy, distribute and transmit the work
* to Remix - to adapt the work

Under the following conditions:
* Attribution. You must attribute the work by stating your use of KanjiVG in
  your own copyright header and linking to KanjiVG's website
  (http://kanjivg.tagaini.net)
* Share Alike. If you alter, transform, or build upon this work, you may
  distribute the resulting work only under the same or similar license to this
  one.

See http://creativecommons.org/licenses/by-sa/3.0/ for more details.
-->

<svg
   width="109"
   height="109"
   viewBox="0 0 109 109"
   version="1.1"
   id="svg4499"
   sodipodi:docname="05abc.svg"
   xml:space="preserve"
   inkscape:version="1.2.2 (b0a8486541, 2022-12-01)"
   xmlns:inkscape="http://www.inkscape.org/namespaces/inkscape"
   xmlns:sodipodi="http://sodipodi.sourceforge.net/DTD/sodipodi-0.dtd"
   xmlns="http://www.w3.org/2000/svg"
   xmlns:svg="http://www.w3.org/2000/svg"
   xmlns:kvg="http://kanjivg.tagaini.net"><defs
     id="defs4503" /><sodipodi:namedview
     id="namedview4501"
     pagecolor="#505050"
     bordercolor="#ffffff"
     borderopacity="1"
     inkscape:showpageshadow="0"
     inkscape:pageopacity="0"
     inkscape:pagecheckerboard="1"
     inkscape:deskcolor="#505050"
     showgrid="false"
     inkscape:zoom="5.7995731"
     inkscape:cx="88.885853"
     inkscape:cy="64.142653"
     inkscape:window-width="1920"
     inkscape:window-height="1042"
     inkscape:window-x="0"
     inkscape:window-y="0"
     inkscape:window-maximized="1"
     inkscape:current-layer="kvg:StrokeNumbers_05abc" /><g
     id="kvg:05abc-g2"
     kvg:element="𥁕"
     kvg:position="right"
     style="fill:none;stroke:#000000;stroke-width:3;stroke-linecap:round;stroke-linejoin:round"><g
       id="kvg:05abc-g3"
       kvg:element="囚"
       kvg:position="top"><g
         id="kvg:05abc-g4"
         kvg:element="囗"
         kvg:part="1"><path
           id="kvg:05abc-s4"
           kvg:type="㇑"
           d="m 48.31,19.89 c 0.42,0.5 0.94,1.89 1.04,2.55 0.9,5.55 3.4,16.8 4.33,28.05" /><path
           id="kvg:05abc-s5"
           kvg:type="㇕a"
           d="M 49.76,21.21 C 61.25,19.75 80.02,18.37 86.78,17.75 89.5,17.5 90,19 89.75,21.19 88.96,28.12 86.5,39.25 84.97,47.65" /></g><g
         id="kvg:05abc-g5"
         kvg:element="人"
         kvg:variant="true"><path
           id="kvg:05abc-s6"
           kvg:type="㇒"
           d="m 68.27,22.28 c 0.06,0.4 0.24,1.25 0.13,1.86 -0.63,3.59 -3.25,12.6 -9.14,16.31" /><path
           id="kvg:05abc-s7"
           kvg:type="㇔/㇏"
           d="m 68.29,30.83 c 4.35,1.33 10.68,6.65 11.76,9.24" /></g><g
         id="kvg:05abc-g6"
         kvg:element="囗"
         kvg:part="2"><path
           id="kvg:05abc-s8"
           kvg:type="㇐a"
           d="m 53.71,47.59 c 7.35,0 21.11,-1.74 31.26,-1.89" /></g></g><g
       id="kvg:05abc-g7"
       kvg:element="皿"
       kvg:position="bottom"><path
         id="kvg:05abc-s9"
         kvg:type="㇑a"
         d="m 46.89,58.58 c 0.55,0.82 1.26,1.72 1.37,2.42 0.92,5.56 1.67,19.5 2.3,29.48" /><path
         id="kvg:05abc-s10"
         kvg:type="㇕b"
         d="m 49.12,60.32 c 9.82,-1.15 36.59,-3.68 40.15,-3.92 2.23,-0.15 3.48,1.1 3.25,3.37 -0.33,3.22 -3.08,24.75 -4.22,29.09" /><path
         id="kvg:05abc-s11"
         kvg:type="㇑a"
         d="m 61.15,60.46 c 0.23,0.53 1.55,2.46 1.56,3.13 0.04,6.66 0.37,17.01 0.91,26.43" /><path
         id="kvg:05abc-s12"
         kvg:type="㇑a"
         d="m 76.58,59.75 c 0.42,0.63 0.82,1.71 0.75,2.53 -0.69,8.12 -1.6,15.96 -2.44,26.35" /><path
         id="kvg:05abc-s13"
         kvg:type="㇐"
         d="m 38.13,91.15 c 1.09,0.37 3.09,0.43 4.18,0.37 11.36,-0.63 33.09,-2.13 54,-2.23 1.82,-0.01 2.91,0.18 3.82,0.37" /></g></g><g
     id="kvg:StrokeNumbers_05abc"
     style="font-size:8;fill:#808080"><text
       id="text4472"
       x="16.919725"
       y="16.054016">1</text><text
       id="text4474"
       x="30.176105"
       y="23.031034">2</text><text
       id="text4476"
       x="33.516464"
       y="43.882771">3</text><text
       id="text4478"
       x="18.890135"
       y="67.2686">4</text><text
       id="text4480"
       x="6.0832157"
       y="75.213028">5</text><text
       id="text4482"
       x="30.469925"
       y="75.980438">6</text><text
       id="text4484"
       x="42.173199"
       y="34.314392">7</text><text
       id="text4486"
       x="55.332191"
       y="17.979624">8</text><text
       id="text4488"
       x="58.393555"
       y="32.771896">9</text><text
       id="text4490"
       x="73.713181"
       y="33.200558">10</text><text
       id="text4492"
       x="54.148991"
       y="48.501083">11</text><text
       id="text4494"
       x="41.678612"
       y="68.591339">12</text><text
       id="text4496"
       x="50.160213"
       y="59.545918">13</text><text
       id="text4496-7"
       x="54.227245"
       y="73.166626"
       style="font-size:8px;fill:#808080">14</text><text
       id="text4496-7-5"
       x="69.170212"
       y="73.739304"
       style="font-size:8px;fill:#808080">15</text><text
       id="text4496-7-3"
       x="88.484612"
       y="72.83596"
       style="font-size:8px;fill:#808080">16</text><text
       id="text4496-7-56"
       x="32.746605"
       y="90.315643"
       style="font-size:8px;fill:#808080">17</text></g><g
     id="kvg:07d14-g1"
     kvg:element="糸"
     kvg:position="left"
     kvg:radical="general"
     transform="translate(-3.5924053,-2.6859666)"
     style="fill:none;stroke:#000000;stroke-width:3;stroke-linecap:round;stroke-linejoin:round"><path
       id="kvg:07d14-s1"
       kvg:type="㇜"
       d="m 28.38,13.67 c 0.34,1.34 0.07,2.68 -0.67,4.05 -3.08,5.65 -7.57,11.74 -12.05,16.97 -0.9,1.06 -0.9,2.68 0.5,3.35 3.94,1.89 6.88,3.86 9.97,6.31" /><path
       id="kvg:07d14-s2"
       kvg:type="㇜"
       d="m 40.8,21.68 c 0.32,1.2 0.15,2.48 -0.25,3.09 -6.68,10.11 -17.43,23.98 -25.98,33.94 -1.72,2 -0.95,3.54 1.15,2.84 4.98,-1.66 17.12,-5.24 23.54,-6.78" /><path
       id="kvg:07d14-s3"
       kvg:type="㇔"
       d="m 35.88,48 c 2.16,2.34 5.58,9.6 6.12,13.23" /><path
       id="kvg:07d14-s4"
       kvg:type="㇑"
       d="m 28.39,61.87 c 0.81,0.81 1.23,2.13 1.23,3.84 0,6.15 -0.12,17.4 -0.18,24.67 -0.01,1.94 -0.02,3.6 -0.02,4.8" /><path
       id="kvg:07d14-s5"
       kvg:type="㇒"
       d="m 18.85,72.1 c 0.16,0.94 0.13,2.29 -0.16,2.97 -1.87,4.39 -6.55,12.6 -9.2,16.37" /><path
       id="kvg:07d14-s6"
       kvg:type="㇔"
       d="m 38.18,68.54 c 2.62,3.41 4.63,11.34 5.24,14.44" /></g></svg>
