<?xml version="1.0" encoding="UTF-8" standalone="no"?>
<!--
Copyright (C) 2009/2010/2011 Ulrich Apel.
This work is distributed under the conditions of the Creative Commons
Attribution-Share Alike 3.0 Licence. This means you are free:
* to Share - to copy, distribute and transmit the work
* to Remix - to adapt the work

Under the following conditions:
* Attribution. You must attribute the work by stating your use of KanjiVG in
  your own copyright header and linking to KanjiVG's website
  (http://kanjivg.tagaini.net)
* Share Alike. If you alter, transform, or build upon this work, you may
  distribute the resulting work only under the same or similar license to this
  one.

See http://creativecommons.org/licenses/by-sa/3.0/ for more details.
-->

<svg
   width="109"
   height="109"
   viewBox="0 0 109 109"
   version="1.1"
   id="svg50"
   sodipodi:docname="0858f.svg"
   xml:space="preserve"
   inkscape:version="1.2.2 (b0a8486541, 2022-12-01)"
   xmlns:inkscape="http://www.inkscape.org/namespaces/inkscape"
   xmlns:sodipodi="http://sodipodi.sourceforge.net/DTD/sodipodi-0.dtd"
   xmlns="http://www.w3.org/2000/svg"
   xmlns:svg="http://www.w3.org/2000/svg"
   xmlns:kvg="http://kanjivg.tagaini.net"><defs
     id="defs54" /><sodipodi:namedview
     id="namedview52"
     pagecolor="#505050"
     bordercolor="#ffffff"
     borderopacity="1"
     inkscape:showpageshadow="0"
     inkscape:pageopacity="0"
     inkscape:pagecheckerboard="1"
     inkscape:deskcolor="#505050"
     showgrid="false"
     inkscape:zoom="4.1009174"
     inkscape:cx="2.5604027"
     inkscape:cy="44.136465"
     inkscape:window-width="1920"
     inkscape:window-height="1042"
     inkscape:window-x="0"
     inkscape:window-y="0"
     inkscape:window-maximized="1"
     inkscape:current-layer="kvg:StrokeNumbers_0610f" /><g
     id="kvg:StrokePaths_0610f"
     style="fill:none;stroke:#000000;stroke-width:3;stroke-linecap:round;stroke-linejoin:round"
     transform="matrix(1.0026659,0,0,0.85580607,-0.14429213,16.401491)"><g
       id="kvg:0610f"
       kvg:element="意"><g
         id="kvg:0610f-g1"
         kvg:element="音"
         kvg:position="top"
         kvg:radical="nelson"><g
           id="kvg:0610f-g2"
           kvg:element="立"><g
             id="kvg:0610f-g3"
             kvg:element="亠"
             kvg:position="top"><path
               id="kvg:0610f-s1"
               kvg:type="㇑a"
               d="m 51.22,10 c 1.19,0.75 1.87,2.08 1.87,3.87 0,1.88 0.16,2.88 0.16,5.41" /><path
               id="kvg:0610f-s2"
               kvg:type="㇐"
               d="m 25.75,22.16 c 2.41,0.63 4.68,0.4 7.12,0.16 10.89,-1.09 25.88,-2.57 38.13,-3.43 2.34,-0.16 5.37,-0.39 8,0.13" /></g><g
             id="kvg:0610f-g4"
             kvg:position="bottom"><path
               id="kvg:0610f-s3"
               kvg:type="㇔"
               d="m 35.88,25.5 c 2.81,3.07 5.01,7.88 5.6,10.7" /><path
               id="kvg:0610f-s4"
               kvg:type="㇒"
               d="m 66.99,22.24 c 0.26,0.96 0.2,2.21 -0.25,3.18 -2.49,5.33 -3.46,7.97 -4.82,10.11" /><path
               id="kvg:0610f-s5"
               kvg:type="㇐"
               d="m 12.75,40.38 c 3.38,0.62 6,0.65 9.28,0.37 C 42.25,39 69.25,37 86.58,36.45 c 3.19,-0.1 6.79,0.3 8.92,0.72" /></g></g><g
           id="kvg:0610f-g5"
           kvg:element="日"><path
             id="kvg:0610f-s6"
             kvg:type="㇑"
             d="m 30.3,48.81 c 0.58,0.53 1.07,1.44 1.33,2.75 0.14,0.71 2.12,18.99 2.12,19.35 0,0.36 0.25,1.35 0.25,2.08" /><path
             id="kvg:0610f-s7"
             kvg:type="㇕a"
             d="m 32.28,49.99 c 9.88,-0.77 33.22,-2.86 37.91,-3.18 2.93,-0.2 4.38,0.65 3.81,3.69 -0.62,3.32 -1.61,10.28 -2.81,16.3 -0.25,1.23 -0.48,2.39 -0.69,3.45" /><path
             id="kvg:0610f-s8"
             kvg:type="㇐a"
             d="m 33.75,60 c 6.5,-0.5 32.72,-2.6 37.75,-2.75" /><path
             id="kvg:0610f-s9"
             kvg:type="㇐a"
             d="m 34.86,70 c 7.39,-0.63 26.18,-1.93 34.69,-2.18" /></g></g><g
         id="kvg:0610f-g6"
         kvg:element="心"
         kvg:position="bottom"
         kvg:radical="tradit"><path
           id="kvg:0610f-s10"
           kvg:type="㇔"
           d="m 20.28,84.31 c -0.91,4.19 -3.03,8.56 -7.13,12.94" /><path
           id="kvg:0610f-s11"
           kvg:type="㇃"
           d="m 33.14,81.65 c 9.36,12.85 21.52,18.78 42.61,17.26 7.5,-0.54 7.5,-2.66 1.88,-6.69" /><path
           id="kvg:0610f-s12"
           kvg:type="㇔a"
           d="m 50.58,78.25 c 1.65,2.45 6.17,7.5 8.17,2.75" /><path
           id="kvg:0610f-s13"
           kvg:type="㇔"
           d="m 82.75,77.25 c 2.88,1.62 6.88,5.5 9.75,10.23" /></g></g></g><g
     id="kvg:StrokeNumbers_0610f"
     style="font-size:8;fill:#808080"><text
       id="text23"
       x="10.786279"
       y="20.09775">1</text><text
       id="text25"
       x="28.520315"
       y="10.534835">2</text><text
       id="text27"
       x="70.660172"
       y="8.7827339">3</text><text
       id="text29"
       x="45.065102"
       y="27.416864">4</text><text
       id="text31"
       x="19.140112"
       y="35.326176">5</text><text
       id="text33"
       x="31.275835"
       y="44.536186">6</text><text
       id="text35"
       x="58.216034"
       y="43.619217">7</text><text
       id="text37"
       x="11.458216"
       y="50.657162">8</text><text
       id="text39"
       x="25.080717"
       y="64.870117">9</text><text
       id="text41"
       x="31.789804"
       y="58.466167">10</text><text
       id="text43"
       x="36.762901"
       y="67.024696">11</text><text
       id="text45"
       x="36.831966"
       y="75.609474">12</text><text
       id="text47"
       x="7.9692292"
       y="90.559273">13</text><text
       id="text47-3"
       x="37.282005"
       y="91.693268"
       style="font-size:8px;fill:#808080">14</text><text
       id="text47-6"
       x="52.346004"
       y="85.29435"
       style="font-size:8px;fill:#808080">15</text><text
       id="text47-7"
       x="73.704994"
       y="84.618935"
       style="font-size:8px;fill:#808080">16</text></g><g
     id="kvg:084bc-g1"
     kvg:element="艹"
     kvg:variant="true"
     kvg:original="艸"
     kvg:position="top"
     kvg:radical="general"
     transform="translate(-0.2483311,-5.0011958)"
     style="fill:none;stroke:#000000;stroke-width:3;stroke-linecap:round;stroke-linejoin:round"><path
       id="kvg:084bc-s1"
       kvg:type="㇐"
       d="m 18.25,22.94 c 2.19,0.77 5.11,0.63 7.39,0.45 12.18,-1.01 37.17,-3.31 51.74,-4 3.33,-0.16 7.01,-0.17 10.29,0.52" /><path
       id="kvg:084bc-s2"
       kvg:type="㇑a"
       d="m 34.94,12.95 c 0.99,0.99 1.37,2.09 1.49,2.86 1.2,8.06 1.99,11.94 2.23,14.94" /><path
       id="kvg:084bc-s3"
       kvg:type="㇑a"
       d="m 67.75,9.92 c 0.42,1.01 0.78,1.71 0.5,3 -1,4.58 -2.62,10.71 -3.97,16.05" /></g></svg>
