<?xml version="1.0" encoding="UTF-8" standalone="no"?>
<!--
Copyright (C) 2009/2010/2011 Ulrich Apel.
This work is distributed under the conditions of the Creative Commons
Attribution-Share Alike 3.0 Licence. This means you are free:
* to Share - to copy, distribute and transmit the work
* to Remix - to adapt the work

Under the following conditions:
* Attribution. You must attribute the work by stating your use of KanjiVG in
  your own copyright header and linking to KanjiVG's website
  (http://kanjivg.tagaini.net)
* Share Alike. If you alter, transform, or build upon this work, you may
  distribute the resulting work only under the same or similar license to this
  one.

See http://creativecommons.org/licenses/by-sa/3.0/ for more details.
-->

<svg
   width="109"
   height="109"
   viewBox="0 0 109 109"
   version="1.1"
   id="svg61"
   sodipodi:docname="09b73.svg"
   inkscape:version="1.2.2 (b0a8486541, 2022-12-01)"
   xml:space="preserve"
   xmlns:inkscape="http://www.inkscape.org/namespaces/inkscape"
   xmlns:sodipodi="http://sodipodi.sourceforge.net/DTD/sodipodi-0.dtd"
   xmlns="http://www.w3.org/2000/svg"
   xmlns:svg="http://www.w3.org/2000/svg"
   xmlns:kvg="http://kanjivg.tagaini.net"><defs
     id="defs65" /><sodipodi:namedview
     id="namedview63"
     pagecolor="#505050"
     bordercolor="#ffffff"
     borderopacity="1"
     inkscape:showpageshadow="0"
     inkscape:pageopacity="0"
     inkscape:pagecheckerboard="1"
     inkscape:deskcolor="#505050"
     showgrid="false"
     inkscape:zoom="4.1009174"
     inkscape:cx="9.1442953"
     inkscape:cy="73.39821"
     inkscape:window-width="1920"
     inkscape:window-height="1042"
     inkscape:window-x="0"
     inkscape:window-y="0"
     inkscape:window-maximized="1"
     inkscape:current-layer="svg61" /><g
     id="kvg:StrokePaths_09b8e"
     style="fill:none;stroke:#000000;stroke-width:3;stroke-linecap:round;stroke-linejoin:round;"><g
       id="kvg:09b8e"
       kvg:element="鮎"><g
         id="kvg:09b8e-g1"
         kvg:element="魚"
         kvg:position="left"
         kvg:radical="general"><g
           id="kvg:09b8e-g2"
           kvg:element="𠂊"
           kvg:variant="true"
           kvg:original="勹"
           kvg:position="top"><path
             id="kvg:09b8e-s1"
             kvg:type="㇒"
             d="M28.99,13.25c0.05,0.59-0.27,1.57-0.59,2.38C26,21.75,20,30.5,12.74,38.12" /><path
             id="kvg:09b8e-s2"
             kvg:type="㇇a"
             d="M25.64,23.13c5.8-0.8,11.57-1.77,17.35-2.73c1.73-0.29,2.84,1.82,1.91,2.9c-3.39,3.95-8.14,9.7-13.2,16.65" /></g><g
           id="kvg:09b8e-g3"
           kvg:position="bottom"><g
             id="kvg:09b8e-g4"
             kvg:element="田"><path
               id="kvg:09b8e-s3"
               kvg:type="㇑"
               d="M16.47,41.48c0.78,0.78,1.42,2.06,1.67,3.4c0.87,4.71,1.98,13.37,2.66,20.87c0.13,1.45,0.25,2.86,0.34,4.19" /><path
               id="kvg:09b8e-s4"
               kvg:type="㇕a"
               d="M18.56,42.9c7.37-1.11,18.9-2.91,26.81-3.83c3.17-0.37,5.83-0.49,5.37,3.43c-0.54,4.58-2.06,13.44-3.91,20.09c-0.5,1.81-1.03,3.46-1.57,4.82" /><path
               id="kvg:09b8e-s5"
               kvg:type="㇑a"
               d="M32.91,42.05c0.77,0.77,0.87,1.82,0.9,3.38c0.12,6.9,0.03,16.41,0.03,19.83" /><path
               id="kvg:09b8e-s6"
               kvg:type="㇐a"
               d="M20.88,54.88c4.62-0.88,22.38-3.12,27.73-3.4" /><path
               id="kvg:09b8e-s7"
               kvg:type="㇐a"
               d="M22.31,68.1c5.84-0.52,14.27-1.94,22.33-2.78" /></g><g
             id="kvg:09b8e-g5"
             kvg:element="灬"
             kvg:variant="true"
             kvg:original="火"><path
               id="kvg:09b8e-s8"
               kvg:type="㇔"
               d="M16.53,77.32c0,6.4-2.75,15.85-3.47,17.68" /><path
               id="kvg:09b8e-s9"
               kvg:type="㇔"
               d="M24.71,77.83c1.71,2.83,3.33,10.63,3.76,15.04" /><path
               id="kvg:09b8e-s10"
               kvg:type="㇔"
               d="M34.62,76.69c1.85,2.37,4.77,9.77,5.23,13.46" /><path
               id="kvg:09b8e-s11"
               kvg:type="㇔"
               d="M45.1,75.12c2.26,2.3,5.83,9.46,6.4,13.03" /></g></g></g></g></g><g
     id="kvg:StrokeNumbers_09b8e"
     style="font-size:8;fill:#808080"><text
       transform="matrix(1 0 0 1 21.25 13.25)"
       id="text28">1</text><text
       transform="matrix(1 0 0 1 34.25 19.25)"
       id="text30">2</text><text
       transform="matrix(1 0 0 1 11.00 49.25)"
       id="text32">3</text><text
       transform="matrix(1 0 0 1 20.25 39.25)"
       id="text34">4</text><text
       transform="matrix(1 0 0 1 37.25 48.08)"
       id="text36">5</text><text
       transform="matrix(1 0 0 1 23.50 51.25)"
       id="text38">6</text><text
       transform="matrix(1 0 0 1 25.25 65.25)"
       id="text40">7</text><text
       transform="matrix(1 0 0 1 10.25 79.25)"
       id="text42">8</text><text
       transform="matrix(1 0 0 1 19.25 78.25)"
       id="text44">9</text><text
       transform="matrix(1 0 0 1 26.25 77.25)"
       id="text46">10</text><text
       transform="matrix(1 0 0 1 38.00 75.25)"
       id="text48">11</text></g><g
     id="kvg:05e2b-g4"
     kvg:position="right"
     transform="matrix(0.94489681,0,0,1.0009947,6.9082299,-1.951308)"
     style="fill:none;stroke:#000000;stroke-width:3;stroke-linecap:round;stroke-linejoin:round"><path
       id="kvg:05e2b-s7"
       kvg:type="㇐"
       d="m 49,20.39 c 2.75,0.61 5.29,0.5 7.49,0.25 8.33,-0.95 24.39,-2.76 33.77,-3.51 2.12,-0.17 4.74,-0.26 6.74,0.13" /><g
       id="kvg:05e2b-g5"
       kvg:element="巾"
       kvg:radical="tradit"><path
         id="kvg:05e2b-s8"
         kvg:type="㇑"
         d="m 52.28,41.16 c 0.78,0.78 1.74,2.72 1.74,4.18 0,0.58 0.15,15.79 0.15,25.92 0,2.54 -0.05,4.52 -0.07,5.47" /><path
         id="kvg:05e2b-s9"
         kvg:type="㇆a"
         d="m 54.48,43.95 c 11.02,-1.33 27.89,-3.83 36.41,-5.08 1.98,-0.29 4.15,1.5 4.15,3.83 0,9.55 0.46,19.8 -0.55,29.23 -0.5,4.65 -4.11,2.32 -6.95,-1.21" /><path
         id="kvg:05e2b-s10"
         kvg:type="㇑"
         d="m 71.36,21.63 c 0.94,0.94 1.51,2.74 1.51,4.07 0,0.68 -0.12,46.93 -0.12,67.05 0,3.73 -0.04,6.3 -0.06,7.13" /></g></g><text
     id="text2161"
     style="font-size:8px;fill:#808080"
     x="53.497707"
     y="13.112226">12</text><text
     id="text2163"
     style="font-size:8px;fill:#808080"
     x="53.497707"
     y="45.162224">13</text><text
     id="text2165"
     style="font-size:8px;fill:#808080"
     x="62.497711"
     y="36.112225">14</text><text
     id="text2167"
     style="font-size:8px;fill:#808080"
     x="69.497704"
     y="26.112226">15</text></svg>
