<?xml version="1.0" encoding="UTF-8" standalone="no"?>
<!--
Copyright (C) 2009/2010/2011 Ulrich Apel.
This work is distributed under the conditions of the Creative Commons
Attribution-Share Alike 3.0 Licence. This means you are free:
* to Share - to copy, distribute and transmit the work
* to Remix - to adapt the work

Under the following conditions:
* Attribution. You must attribute the work by stating your use of KanjiVG in
  your own copyright header and linking to KanjiVG's website
  (http://kanjivg.tagaini.net)
* Share Alike. If you alter, transform, or build upon this work, you may
  distribute the resulting work only under the same or similar license to this
  one.

See http://creativecommons.org/licenses/by-sa/3.0/ for more details.
-->

<svg
   width="109"
   height="109"
   viewBox="0 0 109 109"
   version="1.1"
   id="svg61"
   sodipodi:docname="09bb1.svg"
   inkscape:version="1.2.2 (b0a8486541, 2022-12-01)"
   xmlns:inkscape="http://www.inkscape.org/namespaces/inkscape"
   xmlns:sodipodi="http://sodipodi.sourceforge.net/DTD/sodipodi-0.dtd"
   xmlns="http://www.w3.org/2000/svg"
   xmlns:svg="http://www.w3.org/2000/svg"
   xmlns:kvg="http://kanjivg.tagaini.net">
  <defs
     id="defs65" />
  <sodipodi:namedview
     id="namedview63"
     pagecolor="#505050"
     bordercolor="#ffffff"
     borderopacity="1"
     inkscape:showpageshadow="0"
     inkscape:pageopacity="0"
     inkscape:pagecheckerboard="1"
     inkscape:deskcolor="#505050"
     showgrid="false"
     inkscape:zoom="5.6568543"
     inkscape:cx="63.993164"
     inkscape:cy="34.825009"
     inkscape:window-width="1920"
     inkscape:window-height="1042"
     inkscape:window-x="0"
     inkscape:window-y="0"
     inkscape:window-maximized="1"
     inkscape:current-layer="svg61" />
  <g
     id="kvg:StrokePaths_09b8e"
     style="fill:none;stroke:#000000;stroke-width:3;stroke-linecap:round;stroke-linejoin:round"
     transform="translate(-4.8935994,2.4530549)">
    <g
       id="kvg:09b8e"
       kvg:element="鮎">
      <g
         id="kvg:09b8e-g1"
         kvg:element="魚"
         kvg:position="left"
         kvg:radical="general">
        <g
           id="kvg:09b8e-g2"
           kvg:element="𠂊"
           kvg:variant="true"
           kvg:original="勹"
           kvg:position="top">
          <path
             id="kvg:09b8e-s1"
             kvg:type="㇒"
             d="m 28.99,13.25 c 0.05,0.59 -0.27,1.57 -0.59,2.38 C 26,21.75 20,30.5 12.74,38.12" />
          <path
             id="kvg:09b8e-s2"
             kvg:type="㇇a"
             d="m 25.64,23.13 c 5.8,-0.8 11.57,-1.77 17.35,-2.73 1.73,-0.29 2.84,1.82 1.91,2.9 -3.39,3.95 -8.14,9.7 -13.2,16.65" />
        </g>
        <g
           id="kvg:09b8e-g3"
           kvg:position="bottom">
          <g
             id="kvg:09b8e-g4"
             kvg:element="田">
            <path
               id="kvg:09b8e-s3"
               kvg:type="㇑"
               d="m 16.47,41.48 c 0.78,0.78 1.42,2.06 1.67,3.4 0.87,4.71 1.98,13.37 2.66,20.87 0.13,1.45 0.25,2.86 0.34,4.19" />
            <path
               id="kvg:09b8e-s4"
               kvg:type="㇕a"
               d="m 18.56,42.9 c 7.37,-1.11 18.9,-2.91 26.81,-3.83 3.17,-0.37 5.83,-0.49 5.37,3.43 -0.54,4.58 -2.06,13.44 -3.91,20.09 -0.5,1.81 -1.03,3.46 -1.57,4.82" />
            <path
               id="kvg:09b8e-s5"
               kvg:type="㇑a"
               d="m 32.91,42.05 c 0.77,0.77 0.87,1.82 0.9,3.38 0.12,6.9 0.03,16.41 0.03,19.83" />
            <path
               id="kvg:09b8e-s6"
               kvg:type="㇐a"
               d="M 20.88,54.88 C 25.5,54 43.26,51.76 48.61,51.48" />
            <path
               id="kvg:09b8e-s7"
               kvg:type="㇐a"
               d="m 22.31,68.1 c 5.84,-0.52 14.27,-1.94 22.33,-2.78" />
          </g>
          <g
             id="kvg:09b8e-g5"
             kvg:element="灬"
             kvg:variant="true"
             kvg:original="火">
            <path
               id="kvg:09b8e-s8"
               kvg:type="㇔"
               d="m 16.53,77.32 c 0,6.4 -2.75,15.85 -3.47,17.68" />
            <path
               id="kvg:09b8e-s9"
               kvg:type="㇔"
               d="m 24.71,77.83 c 1.71,2.83 3.33,10.63 3.76,15.04" />
            <path
               id="kvg:09b8e-s10"
               kvg:type="㇔"
               d="m 34.62,76.69 c 1.85,2.37 4.77,9.77 5.23,13.46" />
            <path
               id="kvg:09b8e-s11"
               kvg:type="㇔"
               d="m 45.1,75.12 c 2.26,2.3 5.83,9.46 6.4,13.03" />
          </g>
        </g>
      </g>
    </g>
  </g>
  <g
     id="g6485"
     transform="matrix(0.98926999,0,0,0.98926999,125.0254,38.437581)">
    <g
       id="kvg:059e5-g2"
       kvg:element="老"
       kvg:position="right"
       transform="translate(-119.29341,-35.75832)"
       style="fill:none;stroke:#000000;stroke-width:3;stroke-linecap:round;stroke-linejoin:round">
      <g
         id="kvg:059e5-g3"
         kvg:element="耂"
         kvg:original="老"
         kvg:partial="true">
        <g
           id="kvg:059e5-g4"
           kvg:element="土">
          <path
             id="kvg:059e5-s4"
             kvg:type="㇐"
             d="m 50.5,33.2 c 2.78,0.63 4.27,0.52 6.76,0.26 6.46,-0.66 11.92,-1.8 17.7,-2.5 1.48,-0.29 2.95,-0.25 4.42,0.13" />
          <path
             id="kvg:059e5-s5"
             kvg:type="㇑a"
             d="m 63.92,11.62 c 0.92,0.92 1.27,2.26 1.27,3.64 C 65.19,25.38 65,42.96 65,46" />
          <path
             id="kvg:059e5-s6"
             kvg:type="㇐"
             d="m 43.75,48.03 c 2.64,0.7 5.28,0.86 7.93,0.53 10.3,-1.28 20.79,-2.18 37.78,-3.34 2.82,-0.36 5.62,-0.2 8.41,0.49" />
        </g>
        <path
           id="kvg:059e5-s7"
           kvg:type="㇒"
           d="m 88.44,22.23 c 0.13,1.17 -0.3,3.06 -1.26,4.45 -12.32,17.81 -24.17,30.9 -44.62,44.54" />
      </g>
      <g
         id="kvg:059e5-g5"
         kvg:element="匕">
        <path
           id="kvg:059e5-s8"
           kvg:type="㇒"
           d="m 87.68,58.39 c 0,0.99 -0.69,2.57 -1.54,3.29 C 80.17,66.7 71.8,72.08 63.38,75" />
        <path
           id="kvg:059e5-s9"
           kvg:type="㇟"
           d="m 58.85,56.75 c 1.01,1.01 1.31,2.69 1.19,4.21 0,6.25 -0.08,24.49 -0.08,27.5 0,8.97 3.54,8.07 15.94,8.07 17.09,0 17.88,-2.28 17.88,-11.42" />
      </g>
    </g>
    <text
       id="text3520"
       style="font-size:8px;fill:#808080"
       x="-69.793411"
       y="-5.2583199">12</text>
    <text
       id="text3522"
       style="font-size:8px;fill:#808080"
       x="-65.793411"
       y="-25.42832">13</text>
    <text
       id="text3524"
       style="font-size:8px;fill:#808080"
       x="-71.793411"
       y="9.7416801">14</text>
    <text
       id="text3526"
       style="font-size:8px;fill:#808080"
       x="-37.793415"
       y="-14.25832">15</text>
    <text
       id="text3528"
       style="font-size:8px;fill:#808080"
       x="-40.793415"
       y="22.74168">16</text>
    <text
       id="text3530"
       style="font-size:8px;fill:#808080"
       x="-66.793411"
       y="36.74168">17</text>
  </g>
  <g
     id="kvg:StrokeNumbers_09b8e-9"
     style="font-size:8px;fill:#808080"
     transform="translate(-5.5262881,1.3716248)">
    <text
       transform="translate(21.25,13.25)"
       id="text28-3">1</text>
    <text
       transform="translate(34.25,19.25)"
       id="text30-6">2</text>
    <text
       transform="translate(11,49.25)"
       id="text32-0">3</text>
    <text
       transform="translate(20.25,39.25)"
       id="text34-6">4</text>
    <text
       transform="translate(37.25,48.08)"
       id="text36-2">5</text>
    <text
       transform="translate(23.5,51.25)"
       id="text38-6">6</text>
    <text
       transform="translate(25.25,65.25)"
       id="text40-1">7</text>
    <text
       transform="translate(10.25,79.25)"
       id="text42-8">8</text>
    <text
       transform="translate(19.25,78.25)"
       id="text44-7">9</text>
    <text
       transform="translate(26.25,77.25)"
       id="text46-9">10</text>
    <text
       transform="translate(38,75.25)"
       id="text48-2">11</text>
  </g>
</svg>
