<?xml version="1.0" encoding="UTF-8" standalone="no"?>
<!--
Copyright (C) 2009/2010/2011 Ulrich Apel.
This work is distributed under the conditions of the Creative Commons
Attribution-Share Alike 3.0 Licence. This means you are free:
* to Share - to copy, distribute and transmit the work
* to Remix - to adapt the work

Under the following conditions:
* Attribution. You must attribute the work by stating your use of KanjiVG in
  your own copyright header and linking to KanjiVG's website
  (http://kanjivg.tagaini.net)
* Share Alike. If you alter, transform, or build upon this work, you may
  distribute the resulting work only under the same or similar license to this
  one.

See http://creativecommons.org/licenses/by-sa/3.0/ for more details.
-->

<svg
   width="109"
   height="109"
   viewBox="0 0 109 109"
   version="1.1"
   id="svg49"
   sodipodi:docname="0fa1f.svg"
   xml:space="preserve"
   inkscape:version="1.2.2 (b0a8486541, 2022-12-01)"
   xmlns:inkscape="http://www.inkscape.org/namespaces/inkscape"
   xmlns:sodipodi="http://sodipodi.sourceforge.net/DTD/sodipodi-0.dtd"
   xmlns="http://www.w3.org/2000/svg"
   xmlns:svg="http://www.w3.org/2000/svg"
   xmlns:kvg="http://kanjivg.tagaini.net"><defs
     id="defs53" /><sodipodi:namedview
     id="namedview51"
     pagecolor="#505050"
     bordercolor="#ffffff"
     borderopacity="1"
     inkscape:showpageshadow="0"
     inkscape:pageopacity="0"
     inkscape:pagecheckerboard="1"
     inkscape:deskcolor="#505050"
     showgrid="false"
     inkscape:zoom="4.1009174"
     inkscape:cx="17.678971"
     inkscape:cy="47.306488"
     inkscape:window-width="1920"
     inkscape:window-height="1042"
     inkscape:window-x="0"
     inkscape:window-y="0"
     inkscape:window-maximized="1"
     inkscape:current-layer="kvg:StrokeNumbers_066f7" /><g
     id="kvg:085e4-g1"
     kvg:element="艹"
     kvg:variant="true"
     kvg:original="艸"
     kvg:position="top"
     kvg:radical="general"
     transform="translate(0.2340685,1.2686802)"
     style="fill:none;stroke:#000000;stroke-width:3;stroke-linecap:round;stroke-linejoin:round"><path
       id="kvg:085e4-s1"
       kvg:type="㇐"
       d="m 18.311411,21.891648 c 3.082506,0.945248 7.689572,0.350814 10.861102,0.01949 15.568322,-1.666364 39.082162,-3.517879 54.227613,-4.200017 3.816965,-0.175406 7.600546,0.04873 11.317357,0.740607"
       style="stroke-width:3;stroke-dasharray:none" /><path
       id="kvg:085e4-s2"
       kvg:type="㇑a"
       d="m 35.44,11.2 c 0.93,0.93 1.38,1.84 1.49,2.61 1.07,8.06 1.74,11.44 1.98,14.44" /><path
       id="kvg:085e4-s3"
       kvg:type="㇑a"
       d="m 66.75,8.67 c 0.42,1.01 0.77,1.7 0.5,3 -1.25,5.96 -1.75,8.46 -3.22,13.8" /></g><g
     id="kvg:085e4-g3"
     kvg:element="月"
     kvg:position="left"
     transform="translate(2.2340685,-0.7313198)"
     style="fill:none;stroke:#000000;stroke-width:3;stroke-linecap:round;stroke-linejoin:round"><path
       id="kvg:085e4-s4"
       kvg:type="㇓"
       d="m 18.94,39.55 c 0.94,0.94 0.94,1.83 0.97,3.37 0.46,23.83 -0.79,41.96 -8.16,53.47" /><path
       id="kvg:085e4-s5"
       kvg:type="㇆a"
       d="m 20.64,40.46 c 1.45,-0.05 10.53,-2.48 11.61,-2.58 1.93,-0.19 3.25,1.5 3.25,4 0,4.37 0.05,40.62 0.05,50.01 0,9.49 -5.27,1.79 -6.51,0.51" /><path
       id="kvg:085e4-s6"
       kvg:type="㇐a"
       d="M 21.14,55.55 C 26.09,54.89 30.13,54 34.47,53.56" /><path
       id="kvg:085e4-s7"
       kvg:type="㇐a"
       d="m 20.5,70.95 c 5.13,-0.7 8.42,-1.18 13.97,-1.53" /></g><text
     id="text2874"
     style="font-size:8px;fill:#808080"
     x="11.484068"
     y="24.518681">1</text><text
     id="text2876"
     style="font-size:8px;fill:#808080"
     x="26.484068"
     y="12.51868">2</text><text
     id="text2878"
     style="font-size:8px;fill:#808080"
     x="58.48407"
     y="10.51868">3</text><text
     id="text2880"
     style="font-size:8px;fill:#808080"
     x="15.484068"
     y="45.518681">4</text><text
     id="text2882"
     style="font-size:8px;fill:#808080"
     x="23.484068"
     y="36.518681">5</text><text
     id="text2884"
     style="font-size:8px;fill:#808080"
     x="26.234068"
     y="49.018681">6</text><text
     id="text2886"
     style="font-size:8px;fill:#808080"
     x="26.484068"
     y="66.518677">7</text><g
     id="g12566"
     transform="matrix(0.71597253,0,0,0.71597253,31.545733,28.223932)"><g
       id="kvg:StrokePaths_066f7"
       style="fill:none;stroke:#000000;stroke-width:3;stroke-linecap:round;stroke-linejoin:round"><g
         id="kvg:066f7"
         kvg:element="曷"
         style="stroke-width:4.1901;stroke-dasharray:none"><g
           id="kvg:066f7-g1"
           kvg:element="日"
           kvg:original="曰"
           kvg:position="top"
           kvg:radical="general"
           style="stroke-width:4.1901;stroke-dasharray:none"><path
             id="kvg:066f7-s1"
             kvg:type="㇑"
             d="m 30.74,13.54 c 0.36,0.5 0.37,0.84 0.57,1.46 1.65,5.14 2.82,18.12 3.84,27.7"
             style="stroke-width:4.1901;stroke-dasharray:none" /><path
             id="kvg:066f7-s2"
             kvg:type="㇕a"
             d="M 31.92,15.71 C 43.21,14.61 63,12.5 73.44,11.78 c 3.11,-0.21 3.73,1.94 3.57,3.14 -0.58,4.4 -2.5,18.43 -3.92,25.78"
             style="stroke-width:4.1901;stroke-dasharray:none" /><path
             id="kvg:066f7-s3"
             kvg:type="㇐a"
             d="M 34.28,27.89 C 40.75,27.5 72.02,25.26 75.3,25.15"
             style="stroke-width:4.1901;stroke-dasharray:none" /><path
             id="kvg:066f7-s4"
             kvg:type="㇐a"
             d="m 35.23,40.25 c 11.52,-0.5 26.77,-2 38.34,-2.23"
             style="stroke-width:4.1901;stroke-dasharray:none" /></g><g
           id="kvg:066f7-g2"
           kvg:element="匂"
           kvg:variant="true"
           kvg:position="bottom"
           style="stroke-width:4.1901;stroke-dasharray:none"><g
             id="kvg:066f7-g3"
             kvg:element="勹"
             style="stroke-width:4.1901;stroke-dasharray:none"><g
               id="kvg:066f7-g4"
               kvg:element="丿"
               style="stroke-width:4.1901;stroke-dasharray:none"><path
                 id="kvg:066f7-s5"
                 kvg:type="㇒"
                 d="M 41.13,44.23 C 41.2,44.9 41.44,45.99 41,46.91 37.68,53.74 30.14,63.76 17.5,72.51"
                 style="stroke-width:4.1901;stroke-dasharray:none" /></g><path
               id="kvg:066f7-s6"
               kvg:type="㇆"
               d="m 39.37,54.65 c 1.16,0.5 2.79,0.67 4.65,0.33 1.86,-0.33 35.21,-3.59 39.85,-3.99 2.87,-0.25 4.56,1.3 4.39,4.84 C 87.89,63.42 86,77.5 78.48,95.1 76.88,98.85 73,97.75 70.03,94.27"
               style="stroke-width:4.1901;stroke-dasharray:none" /></g><g
             id="kvg:066f7-g5"
             kvg:element="匕"
             kvg:variant="true"
             style="stroke-width:4.1901;stroke-dasharray:none"><g
               id="kvg:066f7-g6"
               kvg:element="人"
               style="stroke-width:4.1901;stroke-dasharray:none"><path
                 id="kvg:066f7-s7"
                 kvg:type="㇒"
                 d="m 54.79,60.12 c 0.33,0.32 -0.05,2.02 -0.27,2.65 C 52.25,69 50,74.25 41.9,81.75"
                 style="stroke-width:4.1901;stroke-dasharray:none" /><path
                 id="kvg:066f7-s8"
                 kvg:type="㇏"
                 d="m 54.79,68.29 c 4.83,1.78 10.99,6.51 13.33,11"
                 style="stroke-width:4.1901;stroke-dasharray:none" /></g><path
               id="kvg:066f7-s9"
               kvg:type="㇄"
               d="m 31.37,66.01 c 0.85,0.46 1.36,2.07 1.53,2.99 0.15,0.83 -0.6,7.72 -0.6,15.87 0,1.88 0.69,3.07 3.02,2.86 5.43,-0.49 23.93,-1.74 33.43,-2.37 2.07,-0.14 3.73,0.38 4.75,0.38"
               style="stroke-width:4.1901;stroke-dasharray:none" /></g></g></g></g><g
       id="kvg:StrokeNumbers_066f7"
       style="font-size:8px;fill:#808080"><text
         transform="translate(23.5,18.5)"
         id="text12514"
         style="-inkscape-font-specification:'sans-serif, Normal';font-family:sans-serif;font-weight:normal;font-style:normal;font-stretch:normal;font-variant:normal;font-size:11.17361304px;font-variant-ligatures:normal;font-variant-caps:normal;font-variant-numeric:normal;font-variant-east-asian:normal">1</text><text
         transform="translate(34.5,11.5)"
         id="text12516"
         style="-inkscape-font-specification:'sans-serif, Normal';font-family:sans-serif;font-weight:normal;font-style:normal;font-stretch:normal;font-variant:normal;font-size:11.17361304px;font-variant-ligatures:normal;font-variant-caps:normal;font-variant-numeric:normal;font-variant-east-asian:normal">2</text><text
         transform="translate(38.5,24.5)"
         id="text12518"
         style="-inkscape-font-specification:'sans-serif, Normal';font-family:sans-serif;font-weight:normal;font-style:normal;font-stretch:normal;font-variant:normal;font-size:11.17361304px;font-variant-ligatures:normal;font-variant-caps:normal;font-variant-numeric:normal;font-variant-east-asian:normal">3</text><text
         transform="translate(39.5,37.5)"
         id="text12520"
         style="-inkscape-font-specification:'sans-serif, Normal';font-family:sans-serif;font-weight:normal;font-style:normal;font-stretch:normal;font-variant:normal;font-size:11.17361304px;font-variant-ligatures:normal;font-variant-caps:normal;font-variant-numeric:normal;font-variant-east-asian:normal">4</text><text
         transform="translate(30.5,51.5)"
         id="text12522"
         style="-inkscape-font-specification:'sans-serif, Normal';font-family:sans-serif;font-weight:normal;font-style:normal;font-stretch:normal;font-variant:normal;font-size:11.17361304px;font-variant-ligatures:normal;font-variant-caps:normal;font-variant-numeric:normal;font-variant-east-asian:normal">5</text><text
         transform="translate(46.5,51.5)"
         id="text12524"
         style="-inkscape-font-specification:'sans-serif, Normal';font-family:sans-serif;font-weight:normal;font-style:normal;font-stretch:normal;font-variant:normal;font-size:11.17361304px;font-variant-ligatures:normal;font-variant-caps:normal;font-variant-numeric:normal;font-variant-east-asian:normal">6</text><text
         transform="translate(46.5,63.5)"
         id="text12526"
         style="-inkscape-font-specification:'sans-serif, Normal';font-family:sans-serif;font-weight:normal;font-style:normal;font-stretch:normal;font-variant:normal;font-size:11.17361304px;font-variant-ligatures:normal;font-variant-caps:normal;font-variant-numeric:normal;font-variant-east-asian:normal">7</text><text
         transform="translate(60.5,69.1)"
         id="text12528"
         style="-inkscape-font-specification:'sans-serif, Normal';font-family:sans-serif;font-weight:normal;font-style:normal;font-stretch:normal;font-variant:normal;font-size:11.17361304px;font-variant-ligatures:normal;font-variant-caps:normal;font-variant-numeric:normal;font-variant-east-asian:normal">8</text><text
         transform="translate(25.5,76.5)"
         id="text12530"
         style="-inkscape-font-specification:'sans-serif, Normal';font-family:sans-serif;font-weight:normal;font-style:normal;font-stretch:normal;font-variant:normal;font-size:11.17361304px;font-variant-ligatures:normal;font-variant-caps:normal;font-variant-numeric:normal;font-variant-east-asian:normal">9</text></g></g></svg>
